# xmcd
#
# Track frame offsets:
#	150
#	18857
#	36297
#
# Disc length: 712 seconds
#
# Revision: 1
# Processed by: cddbd v1.5PL3 Copyright (c) Steve Scherf et al.
# Submitted via: audiograbber 1.83.01
#
DISCID=1902c603
DTITLE=David Byrne - Angels (EP)
DYEAR=1994
DGENRE=Avantgarde
TTITLE0=Angels (edit)
TTITLE1=Princess
TTITLE2=Ready For This World
EXTD=
EXTT0=
EXTT1=
EXTT2=
PLAYORDER=
